<svg width="50" height="46" viewBox="0 0 50 46" fill="none" xmlns="http://www.w3.org/2000/svg">
<rect width="50" height="45" transform="translate(0 0.419922)" fill="black"/>
<path d="M24.8387 16.9618L24.2973 17.5032C24.1692 17.6314 24.1692 17.8391 24.2973 17.9673L28.5392 22.2091H19.2031C19.0219 22.2091 18.875 22.356 18.875 22.5372V23.3028C18.875 23.484 19.0219 23.631 19.2031 23.631H28.5392L24.2973 27.8728C24.1692 28.0009 24.1692 28.2087 24.2973 28.3368L24.8387 28.8782C24.9668 29.0064 25.1746 29.0064 25.3028 28.8782L31.0289 23.1521C31.157 23.0239 31.157 22.8162 31.0289 22.688L25.3027 16.9618C25.1746 16.8337 24.9668 16.8337 24.8387 16.9618Z" fill="white"/>
</svg>
