<svg width="1344" height="324" viewBox="0 0 1344 324" fill="none" xmlns="http://www.w3.org/2000/svg">
<g clip-path="url(#clip0_1_43)">
<path d="M25.1613 30.9581L25.7027 30.4168C25.8308 30.2886 25.8308 30.0809 25.7027 29.9527L21.4609 25.7109H30.7969C30.9781 25.7109 31.125 25.564 31.125 25.3828V24.6171C31.125 24.4359 30.9781 24.289 30.7969 24.289H21.4609L25.7027 20.0472C25.8308 19.919 25.8308 19.7113 25.7027 19.5831L25.1613 19.0418C25.0332 18.9136 24.8254 18.9136 24.6973 19.0418L18.9711 24.7679C18.843 24.8961 18.843 25.1038 18.9711 25.232L24.6973 30.9582C24.8254 31.0863 25.0332 31.0863 25.1613 30.9581Z" fill="black"/>
</g>
<g clip-path="url(#clip1_1_43)">
<path d="M1318.84 19.0418L1318.3 19.5832C1318.17 19.7113 1318.17 19.9191 1318.3 20.0472L1322.54 24.289H1313.2C1313.02 24.289 1312.88 24.436 1312.88 24.6172V25.3828C1312.88 25.564 1313.02 25.7109 1313.2 25.7109H1322.54L1318.3 29.9527C1318.17 30.0809 1318.17 30.2886 1318.3 30.4168L1318.84 30.9582C1318.97 31.0863 1319.17 31.0863 1319.3 30.9582L1325.03 25.232C1325.16 25.1039 1325.16 24.8961 1325.03 24.768L1319.3 19.0418C1319.17 18.9136 1318.97 18.9136 1318.84 19.0418Z" fill="black"/>
</g>
<defs>
<clipPath id="clip0_1_43">
<rect width="14" height="14" fill="white" transform="translate(18 18)"/>
</clipPath>
<clipPath id="clip1_1_43">
<rect width="14" height="14" fill="white" transform="translate(1312 18)"/>
</clipPath>
</defs>
</svg>
