<svg width="1344" height="325" viewBox="0 0 1344 325" fill="none" xmlns="http://www.w3.org/2000/svg">
<path d="M25.1613 31.4285L25.7027 30.8871C25.8308 30.759 25.8308 30.5512 25.7027 30.423L21.4609 26.1812H30.7969C30.9781 26.1812 31.125 26.0343 31.125 25.8531V25.0875C31.125 24.9063 30.9781 24.7594 30.7969 24.7594H21.4609L25.7027 20.5175C25.8308 20.3894 25.8308 20.1816 25.7027 20.0535L25.1613 19.5121C25.0332 19.384 24.8254 19.384 24.6973 19.5121L18.9711 25.2383C18.843 25.3664 18.843 25.5742 18.9711 25.7023L24.6973 31.4285C24.8254 31.5566 25.0332 31.5566 25.1613 31.4285Z" fill="black"/>
<path d="M1318.84 19.5121L1318.3 20.0535C1318.17 20.1816 1318.17 20.3894 1318.3 20.5176L1322.54 24.7594H1313.2C1313.02 24.7594 1312.88 24.9063 1312.88 25.0875V25.8531C1312.88 26.0343 1313.02 26.1812 1313.2 26.1812H1322.54L1318.3 30.4231C1318.17 30.5512 1318.17 30.759 1318.3 30.8871L1318.84 31.4285C1318.97 31.5566 1319.17 31.5566 1319.3 31.4285L1325.03 25.7024C1325.16 25.5742 1325.16 25.3665 1325.03 25.2383L1319.3 19.5121C1319.17 19.384 1318.97 19.384 1318.84 19.5121Z" fill="black"/>
</svg>
