<svg width="106" height="95" viewBox="0 0 106 95" fill="none" xmlns="http://www.w3.org/2000/svg">
<g clip-path="url(#clip0_1_424)">
<g clip-path="url(#clip1_1_424)">
<g clip-path="url(#clip2_1_424)">
<path fill-rule="evenodd" clip-rule="evenodd" d="M57.2014 42.6257C57.2014 43.6728 57.2014 44.7125 57.2014 45.7523C57.2109 46.0408 57.3141 46.3187 57.496 46.5448C59.06 48.3183 60.1832 50.4276 60.7761 52.705C61.369 54.9823 61.4153 57.3648 60.9113 59.6629C60.4073 61.9611 59.367 64.1114 57.8729 65.9428C56.379 67.7741 54.4726 69.236 52.3056 70.2121C50.1385 71.1882 47.7706 71.6515 45.3902 71.5651C43.0099 71.4788 40.6828 70.8453 38.5942 69.715C36.5055 68.5847 34.7128 66.9887 33.3589 65.0542C32.005 63.1195 31.1272 60.8997 30.7953 58.5713C30.4742 56.4304 30.6308 54.2461 31.2542 52.1713C31.8776 50.0965 32.9528 48.1811 34.4045 46.5593C34.5951 46.3174 34.7034 46.0222 34.7138 45.7159C34.7138 43.9708 34.7138 42.2185 34.7138 40.4734C34.6774 37.683 35.7083 34.9817 37.6004 32.9085C39.4926 30.8353 42.1072 29.5426 44.9223 29.2883C47.7375 29.0341 50.5463 29.837 52.7881 31.537C55.03 33.2369 56.5402 35.7088 57.0173 38.4593C57.0702 38.7135 57.1046 38.9711 57.1203 39.2301C57.1203 40.3643 57.1203 41.4987 57.1203 42.633L57.2014 42.6257ZM32.6957 56.4772C32.6957 59.0657 33.4732 61.5962 34.9301 63.7485C36.3869 65.9008 38.4576 67.5783 40.8802 68.569C43.3029 69.5595 45.9687 69.8187 48.5405 69.3137C51.1124 68.8087 53.4747 67.5622 55.329 65.7318C57.1831 63.9014 58.4459 61.5694 58.9575 59.0305C59.4691 56.4917 59.2065 53.8601 58.2031 51.4686C57.1995 49.0771 55.5002 47.033 53.3198 45.5949C51.1395 44.1567 48.5762 43.3892 45.954 43.3892H45.9023C42.395 43.4027 39.0359 44.7875 36.5607 47.2405C34.0854 49.6935 32.6957 53.0148 32.6957 56.4772ZM55.2273 44.349C55.2418 42.4726 55.1607 40.5967 54.9843 38.7284C54.6167 36.6373 53.5148 34.741 51.872 33.372C50.2293 32.003 48.1506 31.2488 46.0007 31.2419C43.8509 31.2349 41.7673 31.9757 40.1155 33.334C38.4637 34.6924 37.3492 36.5817 36.9678 38.6703C36.8071 40.5004 36.753 42.3381 36.8058 44.1744C36.8058 44.1744 36.8499 44.2254 36.872 44.2472C42.934 40.3426 49.0033 40.3353 55.22 44.349H55.2273Z" fill="black"/>
<path fill-rule="evenodd" clip-rule="evenodd" d="M44.9524 60.5342C44.945 60.4592 44.945 60.3838 44.9524 60.3089C45.0168 60.0258 44.9783 59.7293 44.8436 59.4715C44.709 59.2135 44.4867 59.0106 44.2158 58.8983C43.6509 58.5495 43.2253 58.0191 43.0106 57.3966C42.7959 56.774 42.8053 56.0973 43.0372 55.4808C43.2445 54.8508 43.6561 54.3057 44.2084 53.9294C44.7607 53.5532 45.423 53.3668 46.0933 53.3991C46.7635 53.4313 47.4044 53.6804 47.917 54.1079C48.4297 54.5353 48.7856 55.1175 48.9298 55.7644C49.0891 56.3938 49.0306 57.0579 48.7638 57.6507C48.4968 58.2436 48.0367 58.7313 47.4566 59.0364C47.2798 59.105 47.1318 59.2309 47.0368 59.3933C46.9418 59.5558 46.9055 59.7453 46.9337 59.9307C46.9631 60.4491 46.9631 60.9685 46.9337 61.4867C46.912 61.7372 46.7959 61.9705 46.6084 62.1405C46.4208 62.3105 46.1756 62.4049 45.9209 62.4049C45.6663 62.4049 45.421 62.3105 45.2334 62.1405C45.0459 61.9705 44.9297 61.7372 44.9081 61.4867C44.9081 61.1741 44.9081 60.8541 44.9081 60.5415L44.9524 60.5342Z" fill="black"/>
</g>
</g>
</g>
<defs>
<clipPath id="clip0_1_424">
<rect width="85" height="90.08" fill="white" transform="translate(0.900024 4.91992)"/>
</clipPath>
<clipPath id="clip1_1_424">
<rect width="85" height="90.09" fill="white" transform="translate(0.900024 4.91992)"/>
</clipPath>
<clipPath id="clip2_1_424">
<rect width="90.1" height="90.09" fill="white" transform="translate(0.900024 4.91992)"/>
</clipPath>
</defs>
</svg>
