<svg width="106" height="95" viewBox="0 0 106 95" fill="none" xmlns="http://www.w3.org/2000/svg">
<g clip-path="url(#clip0_1_441)">
<g clip-path="url(#clip1_1_441)">
<g clip-path="url(#clip2_1_441)">
<path fill-rule="evenodd" clip-rule="evenodd" d="M18.9343 34.6813V30.8184C18.9343 29.5308 19.2109 29.2422 20.4744 29.2422H55.4707C56.622 29.2422 56.9659 29.553 56.9659 30.7223V63.3349C56.9659 64.5189 56.7192 64.763 55.4707 64.763C50.4541 64.763 45.445 64.763 40.4285 64.763C40.1402 64.711 39.8428 64.7734 39.6007 64.9368C39.3586 65.1003 39.1913 65.3516 39.1351 65.6363C38.7437 66.8501 37.9698 67.908 36.927 68.6549C35.8841 69.4018 34.627 69.7985 33.3398 69.7869C32.0526 69.7754 30.803 69.3561 29.774 68.5905C28.745 67.825 27.9907 66.7533 27.6216 65.5327C27.5917 65.2908 27.4665 65.0705 27.2733 64.9194C27.0801 64.7683 26.8346 64.6989 26.5899 64.7261H26.5377C24.5415 64.7704 22.5378 64.7261 20.5566 64.7261C19.2558 64.7261 18.9866 64.4597 18.9866 63.172C18.9866 59.0674 18.9866 54.9578 18.9866 50.8433V49.6741H21.0874C21.0874 49.9849 21.0126 50.2143 21.0126 50.4141C21.0126 54.2252 21.0126 58.029 21.0126 61.8326C21.0126 62.5208 21.2145 62.7354 21.8949 62.7206C23.4649 62.6762 25.0349 62.6836 26.605 62.7206C26.7216 62.7416 26.8414 62.739 26.957 62.7128C27.0727 62.6866 27.1817 62.6374 27.2775 62.5682C27.3733 62.4989 27.4539 62.4112 27.5143 62.3102C27.5748 62.2091 27.6138 62.097 27.6291 61.9806C27.9986 60.7391 28.764 59.6492 29.8111 58.8741C30.8582 58.0989 32.1307 57.6799 33.4382 57.6799C34.7458 57.6799 36.0182 58.0989 37.0653 58.8741C38.1124 59.6492 38.8778 60.7391 39.2473 61.9806C39.3818 62.4024 39.5014 62.6762 39.9948 62.6762C44.8245 62.6762 49.6542 62.6762 54.4838 62.6762C54.6178 62.663 54.7504 62.6382 54.8801 62.6023V31.2476H21.0052V34.6295L18.9343 34.6813ZM37.4007 63.7863C37.4079 62.9945 37.1779 62.2183 36.7397 61.5559C36.3014 60.8935 35.6745 60.3747 34.9383 60.0649C34.2022 59.7552 33.3897 59.6685 32.6037 59.8158C31.8177 59.9631 31.0936 60.3378 30.5227 60.8924C29.9518 61.4472 29.56 62.157 29.3966 62.9321C29.2334 63.7072 29.3059 64.5128 29.6052 65.2471C29.9044 65.9815 30.417 66.6114 31.078 67.0574C31.7389 67.5034 32.5187 67.7454 33.3186 67.7527C33.8497 67.7576 34.3766 67.6588 34.8693 67.4622C35.3619 67.2655 35.8105 66.9747 36.1895 66.6064C36.5686 66.2381 36.8707 65.7995 37.0785 65.3155C37.2862 64.8317 37.3957 64.312 37.4007 63.7863Z" fill="black"/>
<path fill-rule="evenodd" clip-rule="evenodd" d="M58.1172 35.599C61.7133 35.599 65.2197 35.599 68.726 35.599C72.4641 35.599 71.7164 35.1476 74.1163 38.2186C77.2413 42.1777 80.359 46.1369 83.514 50.059C84.1219 50.7852 84.4409 51.7063 84.4111 52.6491C84.3663 55.8459 84.4111 59.0427 84.4111 62.2692C84.4111 64.0083 83.7158 64.7262 81.9813 64.7483C81.2337 64.7483 80.4412 64.7483 79.6712 64.7483C79.0805 64.7483 78.8339 64.9334 78.6619 65.4884C78.313 66.667 77.6025 67.7089 76.6286 68.47C75.6548 69.2311 74.4659 69.6735 73.2267 69.7361C72.0349 69.8326 70.8418 69.5661 69.8075 68.9721C68.7731 68.3782 67.9471 67.4854 67.4401 66.4134C67.1842 65.8622 66.962 65.2963 66.7747 64.7187H58.1322L58.1172 35.599ZM60.1432 62.7429C61.9376 62.7429 63.6272 62.6837 65.3094 62.7429C65.7297 62.8382 66.1709 62.7648 66.5366 62.5387C66.9024 62.3126 67.1627 61.9523 67.2607 61.5366C67.2607 61.5366 67.2607 61.4922 67.2607 61.4774C67.6979 60.2935 68.5152 59.2841 69.5874 58.6039C70.6595 57.9235 71.9273 57.6099 73.1967 57.7108C74.4485 57.7944 75.6449 58.2535 76.6266 59.0268C77.6082 59.8002 78.3287 60.8511 78.6919 62.0398C78.7741 62.2915 79.0432 62.6614 79.2451 62.6763C80.2469 62.7429 81.2487 62.6763 82.2804 62.6763C82.3163 62.4978 82.3413 62.3174 82.3551 62.136C82.3551 58.88 82.3551 55.6239 82.3551 52.3678C82.3186 51.9525 82.1512 51.5591 81.8766 51.243C78.4475 46.8719 74.9935 42.5133 71.5146 38.1668C71.2088 37.8231 70.7797 37.6107 70.3184 37.5749C67.6494 37.5231 64.973 37.5749 62.2965 37.5749H60.1432V62.7429ZM76.8826 63.7788C76.8915 63.256 76.7962 62.7366 76.6023 62.2501C76.4084 61.7638 76.1194 61.3199 75.7522 60.944C75.3849 60.5681 74.9465 60.2676 74.4618 60.0594C73.9772 59.8513 73.4559 59.7397 72.9276 59.731C72.1296 59.7169 71.3453 59.9364 70.6729 60.362C70.0005 60.7876 69.4699 61.4002 69.148 62.1231C68.826 62.8459 68.7268 63.6468 68.8628 64.4251C68.999 65.2036 69.3643 65.9248 69.913 66.4986C70.4616 67.0723 71.1691 67.4728 71.9469 67.65C72.7247 67.8271 73.538 67.7731 74.2849 67.4944C75.0317 67.2158 75.6786 66.725 76.1448 66.0838C76.6109 65.4425 76.8754 64.6793 76.905 63.8899V63.7788H76.8826Z" fill="black"/>
<path fill-rule="evenodd" clip-rule="evenodd" d="M70.6622 52.2716H64.6812C63.2682 52.2716 62.5879 51.5982 62.5804 50.207C62.5804 47.0693 62.5804 43.9366 62.5804 40.8087C62.5804 39.3287 63.2384 38.6997 64.7186 38.6923C66.199 38.6849 67.7091 38.6183 69.1371 38.6923C69.7861 38.7504 70.3918 39.0396 70.8417 39.5063C73.3836 42.6735 75.8433 45.9 78.3179 49.1265C78.4902 49.3014 78.6258 49.5084 78.7169 49.7354C78.8079 49.9625 78.8526 50.2051 78.8484 50.4494C78.8443 50.6935 78.7912 50.9345 78.6925 51.1584C78.5937 51.3822 78.4512 51.5845 78.2731 51.7536C78.0749 51.9387 77.8388 52.0795 77.5808 52.1664C77.3228 52.2532 77.0489 52.2841 76.7778 52.2569C74.7219 52.2569 72.6659 52.2716 70.6622 52.2716ZM76.5236 50.2144C76.4115 50.0294 76.3666 49.9332 76.2993 49.8443C74.0565 46.9213 71.8136 43.9908 69.5035 41.0826C69.2856 40.8512 68.9852 40.7131 68.6661 40.6977C67.5895 40.6533 66.5129 40.6977 65.4363 40.6977C64.6887 40.6607 64.5765 40.9568 64.584 41.6079C64.584 44.161 64.584 46.7215 64.584 49.2745C64.584 49.6002 64.5841 49.9184 64.629 50.2514L76.5236 50.2144Z" fill="black"/>
<path d="M28.9824 39.0249H8.51251V41.023H28.9824V39.0249Z" fill="black"/>
<path d="M32.1971 43.332H11.7272V45.3301H32.1971V43.332Z" fill="black"/>
<path d="M34.1859 34.6069H13.7608V36.605H34.1859V34.6069Z" fill="black"/>
<path d="M26.231 47.7207H5.806V49.7188H26.231V47.7207Z" fill="black"/>
</g>
</g>
</g>
<defs>
<clipPath id="clip0_1_441">
<rect width="85" height="90.08" fill="white" transform="translate(0.399994 4.91992)"/>
</clipPath>
<clipPath id="clip1_1_441">
<rect width="85" height="90.09" fill="white" transform="translate(0.399994 4.91992)"/>
</clipPath>
<clipPath id="clip2_1_441">
<rect width="90.1" height="90.09" fill="white" transform="translate(0.399994 4.91992)"/>
</clipPath>
</defs>
</svg>
