<svg width="86" height="95" viewBox="0 0 86 95" fill="none" xmlns="http://www.w3.org/2000/svg">
<g clip-path="url(#clip0_1_476)">
<g clip-path="url(#clip1_1_476)">
<g clip-path="url(#clip2_1_476)">
<mask id="mask0_1_476" style="mask-type:luminance" maskUnits="userSpaceOnUse" x="25" y="30" width="41" height="41">
<path d="M65.8877 30.1431H25.348V70.6305H65.8877V30.1431Z" fill="white"/>
</mask>
<g mask="url(#mask0_1_476)">
<path fill-rule="evenodd" clip-rule="evenodd" d="M45.6067 30.1431C50.977 30.1352 56.1307 32.2598 59.9351 36.0503C63.7396 39.8407 65.8833 44.9865 65.8952 50.3569C65.9022 55.7338 63.7729 60.8932 59.9758 64.7002C56.1787 68.5072 51.0248 70.6497 45.6478 70.6567C40.2709 70.6636 35.1115 68.5344 31.3045 64.7372C27.4976 60.9401 25.3549 55.7862 25.348 50.4093V50.3419C25.3499 47.6849 25.8757 45.0543 26.8952 42.6006C27.9147 40.147 29.408 37.9184 31.2896 36.0424C33.1712 34.1664 35.4042 32.6797 37.8609 31.6675C40.3174 30.6552 42.9496 30.1372 45.6067 30.1431ZM35.4399 51.0007C35.4399 51.1279 35.4399 51.2253 35.4399 51.3152C35.5065 53.8712 35.8682 56.411 36.5179 58.8841C36.5928 59.1835 36.7575 59.206 37.0046 59.206H44.6708H45.0452V51.0007H35.4399ZM46.2504 59.176H46.5051H54.4109C54.4941 59.1891 54.5792 59.1689 54.6478 59.12C54.7163 59.071 54.763 58.997 54.7777 58.914V58.8616C55.0847 57.1173 55.4365 55.3728 55.706 53.621C55.8333 52.76 55.8258 51.8692 55.8782 50.9783H46.2504V59.176ZM45.0226 41.5751H44.6109C42.0804 41.5751 39.55 41.5751 37.0195 41.5751C36.9533 41.5646 36.8855 41.5678 36.8206 41.5847C36.7557 41.6016 36.695 41.6318 36.6422 41.6732C36.5895 41.7148 36.546 41.7666 36.5142 41.8258C36.4825 41.8849 36.4634 41.9499 36.458 42.0168C35.8718 44.3126 35.5305 46.664 35.4399 49.0317C35.4399 49.2788 35.4399 49.5259 35.4399 49.7804H45.0226V41.5751ZM55.8258 49.7655C55.8316 49.6832 55.8316 49.6007 55.8258 49.5184C55.7857 46.9345 55.4313 44.3652 54.7702 41.8671C54.6953 41.5976 54.5605 41.5452 54.3211 41.5452H46.5724C46.4751 41.5452 46.3703 41.5452 46.2579 41.5452V49.728L55.8258 49.7655ZM26.6731 51.0082C26.6731 51.0906 26.6731 51.1729 26.6731 51.2553C26.7854 53.939 27.483 56.5656 28.7169 58.9514C28.7673 59.0208 28.8323 59.0782 28.9074 59.1196C28.9824 59.1611 29.0656 59.1854 29.1511 59.191C31.1126 59.191 33.0816 59.191 35.0506 59.191H35.3725C35.3725 59.0487 35.3275 58.9515 35.2976 58.8466C34.6762 56.3983 34.342 53.8858 34.3019 51.36C34.3019 51.113 34.242 51.0082 33.965 51.0157H26.9351H26.6955L26.6731 51.0082ZM55.983 59.1835H56.3274C58.2365 59.1835 60.1531 59.1835 62.0621 59.1835C62.1856 59.1978 62.3104 59.1703 62.4164 59.105C62.5222 59.0399 62.6032 58.941 62.6461 58.8242C63.4495 57.2203 64.0144 55.5079 64.3231 53.7408C64.4728 52.8349 64.5477 51.9215 64.6674 50.9783H57.091C56.9638 52.3783 56.8889 53.7408 56.7092 55.0884C56.5295 56.436 56.2376 57.7686 55.9605 59.1611L55.983 59.1835ZM34.2719 49.7504C34.3159 46.994 34.6853 44.2524 35.3725 41.5826H35.1553C33.134 41.5826 31.1126 41.5826 29.0987 41.5826C29.0147 41.5948 28.9342 41.6253 28.863 41.6719C28.7919 41.7184 28.7318 41.78 28.687 41.8522C27.8115 43.5426 27.2124 45.3624 26.9126 47.2425C26.7778 48.066 26.7105 48.897 26.6132 49.7655L34.2719 49.7504ZM64.5851 49.7504C64.5851 49.6606 64.5851 49.6157 64.5851 49.5783C64.4807 46.8675 63.7912 44.2114 62.5638 41.7922C62.4439 41.5601 62.2792 41.5527 62.0696 41.5527H56.2451C56.1402 41.5527 56.043 41.5527 55.9007 41.5527C56.5964 44.2212 56.9708 46.9632 57.0161 49.7205L64.5851 49.7504ZM45.0301 31.4083C44.6926 31.4382 44.3574 31.4907 44.027 31.5656C42.8098 31.9499 41.7134 32.6438 40.8452 33.5794C39.1976 35.3444 37.949 37.4432 37.1842 39.7335C37.1168 39.9206 37.057 40.1077 36.9896 40.3249H45.0301V31.4083ZM45.0301 69.3727V60.4264H37.0195C37.0122 60.4985 37.0122 60.5712 37.0195 60.6434C37.654 62.5803 38.5997 64.4009 39.8195 66.0337C40.3544 66.9613 41.1028 67.7481 42.0024 68.3288C42.9021 68.9095 43.9271 69.2673 44.9927 69.3727H45.0301ZM54.2761 40.3473C54.2672 40.2768 54.2547 40.2068 54.2386 40.1376C53.6169 38.2413 52.6997 36.4551 51.521 34.8447C50.6058 33.5551 49.3732 32.5236 47.9424 31.8501C47.4288 31.5744 46.8466 31.4522 46.2655 31.4982V40.3473H54.2761ZM46.2504 69.3877C46.6492 69.3252 47.0441 69.2402 47.4334 69.1332C48.7073 68.6782 49.8438 67.905 50.7349 66.8872C52.1278 65.2905 53.2142 63.4505 53.9392 61.4594C54.0664 61.1375 54.1713 60.8156 54.306 60.4563H46.2504V69.3877ZM40.628 68.6391C40.2163 68.2049 39.7821 67.7931 39.3928 67.3439C37.7977 65.4085 36.5949 63.181 35.8516 60.7857C35.8331 60.6703 35.7704 60.5666 35.6768 60.4968C35.5831 60.4269 35.4659 60.3963 35.3501 60.4113C33.5457 60.4113 31.7415 60.4113 29.9372 60.4113C29.81 60.4113 29.6901 60.4113 29.4955 60.4113C32.0328 64.4549 36.0125 67.3828 40.628 68.6017V68.6391ZM40.7029 32.0672C36.0522 33.3312 32.0449 36.294 29.4731 40.3698H29.9971C31.7415 40.3698 33.4783 40.3698 35.2377 40.3698C35.3134 40.3827 35.391 40.3805 35.4658 40.3633C35.5407 40.3462 35.6114 40.3145 35.674 40.27C35.7366 40.2255 35.7897 40.1691 35.8306 40.1039C35.8713 40.0389 35.8989 39.9664 35.9115 39.8907C36.6394 37.5465 37.8139 35.3652 39.3703 33.4672C39.7596 33.003 40.2088 32.5837 40.7029 32.0596V32.0672ZM61.6653 60.4413H61.4408C59.6141 60.4413 57.7723 60.4413 55.9456 60.4413C55.8821 60.4306 55.8172 60.4326 55.7545 60.4472C55.6918 60.4618 55.6326 60.4886 55.5805 60.5263C55.5282 60.5638 55.484 60.6114 55.4503 60.6662C55.4166 60.721 55.3941 60.782 55.3841 60.8456C54.5062 63.7993 52.8728 66.4727 50.6451 68.6017C50.6451 68.6017 50.6451 68.6465 50.6451 68.6691C54.1712 68.1899 60.1305 63.7653 61.6653 60.4712V60.4413ZM50.7424 32.1869C51.1991 32.6885 51.6857 33.1677 52.1124 33.6842C53.6059 35.5679 54.7357 37.7132 55.444 40.0104C55.4522 40.064 55.4709 40.1156 55.4991 40.162C55.5273 40.2083 55.5643 40.2486 55.6082 40.2807C55.652 40.3127 55.7018 40.3358 55.7545 40.3485C55.8073 40.3612 55.862 40.3633 55.9156 40.3548C57.7274 40.3548 59.5316 40.3548 61.336 40.3548C61.4557 40.3548 61.5605 40.3548 61.7626 40.3548C59.2552 36.3357 55.3171 33.4168 50.7424 32.1869Z" fill="black"/>
</g>
</g>
</g>
</g>
<defs>
<clipPath id="clip0_1_476">
<rect width="85" height="90.08" fill="white" transform="translate(0.119965 4.91992)"/>
</clipPath>
<clipPath id="clip1_1_476">
<rect width="85" height="90.09" fill="white" transform="translate(0.119965 4.91992)"/>
</clipPath>
<clipPath id="clip2_1_476">
<rect width="90.1" height="90.09" fill="white" transform="translate(0.119965 4.91992)"/>
</clipPath>
</defs>
</svg>
