<svg width="26" height="26" viewBox="0 0 26 26" fill="none" xmlns="http://www.w3.org/2000/svg">
<rect x="0.890015" y="0.550049" width="25" height="25" rx="12.5" fill="black"/>
<path d="M19.14 12.3H14.14V7.30005C14.14 7.16192 14.0281 7.05005 13.89 7.05005H12.89C12.7519 7.05005 12.64 7.16192 12.64 7.30005V12.3H7.64001C7.50189 12.3 7.39001 12.4119 7.39001 12.55V13.55C7.39001 13.6882 7.50189 13.8 7.64001 13.8H12.64V18.8C12.64 18.9382 12.7519 19.05 12.89 19.05H13.89C14.0281 19.05 14.14 18.9382 14.14 18.8V13.8H19.14C19.2781 13.8 19.39 13.6882 19.39 13.55V12.55C19.39 12.4119 19.2781 12.3 19.14 12.3Z" fill="white" stroke="white" stroke-width="0.03125"/>
</svg>
