<svg width="26" height="26" viewBox="0 0 26 26" fill="none" xmlns="http://www.w3.org/2000/svg">
<rect x="0.890015" y="0.449951" width="25" height="25" rx="12.5" fill="black"/>
<path d="M19.14 12.2H14.14V7.19995C14.14 7.06183 14.0281 6.94995 13.89 6.94995H12.89C12.7519 6.94995 12.64 7.06183 12.64 7.19995V12.2H7.64001C7.50189 12.2 7.39001 12.3118 7.39001 12.45V13.45C7.39001 13.5881 7.50189 13.7 7.64001 13.7H12.64V18.7C12.64 18.8381 12.7519 18.95 12.89 18.95H13.89C14.0281 18.95 14.14 18.8381 14.14 18.7V13.7H19.14C19.2781 13.7 19.39 13.5881 19.39 13.45V12.45C19.39 12.3118 19.2781 12.2 19.14 12.2Z" fill="white" stroke="white" stroke-width="0.03125"/>
</svg>
