<svg width="26" height="26" viewBox="0 0 26 26" fill="none" xmlns="http://www.w3.org/2000/svg">
<rect x="0.5" y="0.719971" width="25" height="25" rx="12.5" fill="black"/>
<path d="M18.75 12.47H13.75V7.46997C13.75 7.33185 13.6381 7.21997 13.5 7.21997H12.5C12.3619 7.21997 12.25 7.33185 12.25 7.46997V12.47H7.25C7.11187 12.47 7 12.5818 7 12.72V13.72C7 13.8581 7.11187 13.97 7.25 13.97H12.25V18.97C12.25 19.1081 12.3619 19.22 12.5 19.22H13.5C13.6381 19.22 13.75 19.1081 13.75 18.97V13.97H18.75C18.8881 13.97 19 13.8581 19 13.72V12.72C19 12.5818 18.8881 12.47 18.75 12.47Z" fill="white" stroke="white" stroke-width="0.03125"/>
</svg>
