<svg width="26" height="26" viewBox="0 0 26 26" fill="none" xmlns="http://www.w3.org/2000/svg">
<rect x="0.890015" y="0.219971" width="25" height="25" rx="12.5" fill="black"/>
<path d="M19.14 11.97H14.14V6.96997C14.14 6.83185 14.0281 6.71997 13.89 6.71997H12.89C12.7519 6.71997 12.64 6.83185 12.64 6.96997V11.97H7.64001C7.50189 11.97 7.39001 12.0818 7.39001 12.22V13.22C7.39001 13.3581 7.50189 13.47 7.64001 13.47H12.64V18.47C12.64 18.6081 12.7519 18.72 12.89 18.72H13.89C14.0281 18.72 14.14 18.6081 14.14 18.47V13.47H19.14C19.2781 13.47 19.39 13.3581 19.39 13.22V12.22C19.39 12.0818 19.2781 11.97 19.14 11.97Z" fill="white" stroke="white" stroke-width="0.03125"/>
</svg>
