<svg width="6" height="15" viewBox="0 0 6 15" fill="none" xmlns="http://www.w3.org/2000/svg">
<g clip-path="url(#clip0_1_181)">
<path d="M3.14767 9.66559L3.34124 9.47155C3.38706 9.42562 3.38706 9.35116 3.34124 9.30522L1.82457 7.78488H5.16267C5.22746 7.78488 5.27999 7.73222 5.27999 7.66728V7.39286C5.27999 7.32791 5.22746 7.27526 5.16267 7.27526H1.82457L3.34124 5.75491C3.38706 5.70898 3.38706 5.63452 3.34124 5.58858L3.14767 5.39455C3.10186 5.34863 3.02757 5.34863 2.98175 5.39455L0.934354 7.44691C0.88854 7.49284 0.88854 7.5673 0.934354 7.61324L2.98175 9.6656C3.02756 9.71152 3.10185 9.71152 3.14767 9.66559Z" fill="#007AFF"/>
</g>
<defs>
<clipPath id="clip0_1_181">
<rect width="4.38" height="14" fill="white" transform="translate(0.899994 0.530029)"/>
</clipPath>
</defs>
</svg>
