<svg width="6" height="15" viewBox="0 0 6 15" fill="none" xmlns="http://www.w3.org/2000/svg">
<g clip-path="url(#clip0_1_188)">
<path d="M3.03235 5.39456L2.83878 5.5886C2.79297 5.63452 2.79297 5.70899 2.83878 5.75492L4.35545 7.27526H1.01735C0.952555 7.27526 0.900024 7.32792 0.900024 7.39287V7.66728C0.900024 7.73223 0.952555 7.78489 1.01735 7.78489H4.35545L2.83878 9.30524C2.79297 9.35116 2.79297 9.42563 2.83878 9.47156L3.03235 9.6656C3.07817 9.71153 3.15245 9.71153 3.19827 9.6656L5.24567 7.61324C5.29148 7.56732 5.29148 7.49285 5.24567 7.44692L3.19826 5.39456C3.15245 5.34862 3.07817 5.34862 3.03235 5.39456Z" fill="#007AFF"/>
</g>
<defs>
<clipPath id="clip0_1_188">
<rect width="4.38" height="14" fill="white" transform="translate(0.900024 0.530029)"/>
</clipPath>
</defs>
</svg>
